# File created by Blade
# Date/Time:  Tue Jan 27 19:14:14 2015
#---------------------------------------------------------
:version 1.10
:name HOM
:units
  mass 1.0
  length 1.000000
  angle deg
:documentation
     Acclaim Skeleton File
:root
   axis xyz
   order TX TY TZ RX RY RZ
   position 0.000000 0.000000 0.000000
   orientation 0 0 0
:bonedata
   begin
      id 1
      name Spine_dum
      direction 0.000000 1.000000 0.000000
      length 6.116652
      axis 0.0 0.0 0.0 xyz
   end
   begin
      id 2
      name LeftUpLeg_dum
      direction 1.000000 0.000000 0.000000
      length 4.711765
      axis 0.0 0.0 0.0 xyz
   end
   begin
      id 3
      name RightUpLeg_dum
      direction -1.000000 0.000000 0.000000
      length 4.711765
      axis 0.0 0.0 0.0 xyz
   end
   begin
      id 4
      name Spine
      direction 0.000000 1.000000 0.000000
      length 0.000000
      axis 0.0 0.0 0.0 xyz
      dof rx ry rz
   end
   begin
      id 5
      name Spine_dum1
      direction 0.000000 1.000000 0.000000
      length 15.225563
      axis 0.0 0.0 0.0 xyz
   end
   begin
      id 6
      name Spine_dum2
      direction 0.000000 1.000000 0.000000
      length 8.977654
      axis 0.0 0.0 0.0 xyz
   end
   begin
      id 7
      name Spine_dum3
      direction 0.000000 1.000000 0.000000
      length 8.977654
      axis 0.0 0.0 0.0 xyz
   end
   begin
      id 8
      name Head
      direction 0.000000 1.000000 0.000000
      length 4.527550
      axis 0.0 0.0 0.0 xyz
      dof rx ry rz
   end
   begin
      id 9
      name LeftShoulder
      direction 1.000000 0.000000 0.000000
      length 7.110130
      axis 0.0 0.0 -90.0 xyz
      dof rx ry rz
   end
   begin
      id 10
      name LeftArm
      direction 1.000000 0.000000 0.000000
      length 10.398341
      axis 0.0 0.0 -90.0 xyz
      dof rx ry rz
   end
   begin
      id 11
      name LeftForeArm
      direction 1.000000 0.000000 0.000000
      length 8.888997
      axis 0.0 0.0 -90.0 xyz
      dof ry rz rx
   end
   begin
      id 12
      name LeftHand
      direction 0.000000 0.000000 0.000000
      length 0.000000
      axis 0.0 0.0 -90.0 xyz
      dof rx ry rz
   end
   begin
      id 13
      name LeftHand_dum1
      direction 0.000000 0.000000 0.000000
      length 0.000000
      axis 0.0 0.0 -90.0 xyz
   end
   begin
      id 14
      name LeftHand_dum2
      direction 1.000000 0.000000 0.000000
      length 3.937000
      axis 0.0 0.0 -90.0 xyz
   end
   begin
      id 15
      name LeftHandThumb1
      direction 0.000000 0.000000 1.000000
      length 3.937000
      axis 0.0 0.0 -90.0 xyz
      dof rx rz ry
   end
   begin
      id 16
      name RightShoulder
      direction -1.000000 0.000000 0.000000
      length 7.110130
      axis 0.0 0.0 90.0 xyz
      dof rx ry rz
   end
   begin
      id 17
      name RightArm
      direction -1.000000 0.000000 0.000000
      length 10.398341
      axis 0.0 0.0 90.0 xyz
      dof rx ry rz
   end
   begin
      id 18
      name RightForeArm
      direction -1.000000 0.000000 0.000000
      length 8.888997
      axis 0.0 0.0 90.0 xyz
      dof ry rz rx
   end
   begin
      id 19
      name RightHand
      direction 0.000000 0.000000 0.000000
      length 0.000000
      axis 0.0 0.0 90.0 xyz
      dof rx ry rz
   end
   begin
      id 20
      name RightHand_dum1
      direction 0.000000 0.000000 0.000000
      length 0.000000
      axis 0.0 0.0 90.0 xyz
   end
   begin
      id 21
      name RightHand_dum2
      direction -1.000000 0.000000 0.000000
      length 3.937000
      axis 0.0 0.0 90.0 xyz
   end
   begin
      id 22
      name RightHandThumb1
      direction 0.000000 0.000000 1.000000
      length 3.937000
      axis 0.0 0.0 90.0 xyz
      dof rx rz ry
   end
   begin
      id 23
      name LeftUpLeg
      direction 0.000000 -1.000000 0.000000
      length 15.510451
      axis 0.0 0.0 0.0 xyz
      dof rx ry rz
   end
   begin
      id 24
      name LeftLeg
      direction 0.000000 -1.000000 0.000000
      length 14.858061
      axis 0.0 0.0 0.0 xyz
      dof rx ry rz
   end
   begin
      id 25
      name LeftFoot
      direction 0.000000 -0.258819 0.965926
      length 5.128852
      axis 15.0 0.0 0.0 xyz
      dof rx ry rz
   end
   begin
      id 26
      name LeftToeBase
      direction 0.000000 0.000000 1.000000
      length 2.952750
      axis 0.0 0.0 0.0 xyz
      dof rx ry rz
   end
   begin
      id 27
      name RightUpLeg
      direction 0.000000 -1.000000 0.000000
      length 15.510451
      axis 0.0 0.0 0.0 xyz
      dof rx ry rz
   end
   begin
      id 28
      name RightLeg
      direction 0.000000 -1.000000 0.000000
      length 14.858061
      axis 0.0 0.0 0.0 xyz
      dof rx ry rz
   end
   begin
      id 29
      name RightFoot
      direction 0.000000 -0.258819 0.965926
      length 5.128852
      axis 15.0 0.0 0.0 xyz
      dof rx ry rz
   end
   begin
      id 30
      name RightToeBase
      direction 0.000000 0.000000 1.000000
      length 2.952750
      axis 0.0 0.0 0.0 xyz
      dof rx ry rz
   end
:hierarchy
   begin
      root Spine_dum LeftUpLeg_dum RightUpLeg_dum
      Spine_dum Spine
      LeftUpLeg_dum LeftUpLeg
      RightUpLeg_dum RightUpLeg
      Spine Spine_dum1 Spine_dum2 Spine_dum3
      Spine_dum1 Head
      Spine_dum2 LeftShoulder
      Spine_dum3 RightShoulder
      LeftShoulder LeftArm
      LeftArm LeftForeArm
      LeftForeArm LeftHand
      LeftHand LeftHand_dum1 LeftHand_dum2
      LeftHand_dum1 LeftHandThumb1
      RightShoulder RightArm
      RightArm RightForeArm
      RightForeArm RightHand
      RightHand RightHand_dum1 RightHand_dum2
      RightHand_dum1 RightHandThumb1
      LeftUpLeg LeftLeg
      LeftLeg LeftFoot
      LeftFoot LeftToeBase
      RightUpLeg RightLeg
      RightLeg RightFoot
      RightFoot RightToeBase
   end

# File created by Blade
# Date/Time:  Tue Jan 27 19:14:06 2015
# Frame Rate: 120.000 fps
#------------------------------------------------------
:FULLY-SPECIFIED
:DEGREES
845
root 4.305863 32.401838 1.263724 -2.897789 20.237716 2.901196
Spine -3.836307 16.083393 -4.284956
Head 9.370092 -21.327276 -5.986435
LeftShoulder -9.739617 -7.618500 22.637528
LeftArm -5.582206 32.794530 -103.044454
LeftForeArm 6.603349 -0.000000 9.413070
LeftHand 10.098331 0.000000 -7.238212
LeftHandThumb1 -26.253704 0.000000 33.147579
RightShoulder -12.367690 17.333196 -62.383661
RightArm 52.678187 21.693424 28.633852
RightForeArm 22.922207 -0.000000 84.634329
RightHand 24.104057 -0.000000 1.683471
RightHandThumb1 -24.326973 -0.000000 -32.862282
LeftUpLeg 7.992560 -12.356911 -2.985543
LeftLeg 2.407012 -0.000000 -0.000000
LeftFoot -11.732375 4.636497 -20.966810
LeftToeBase 19.161424 -0.000000 -0.000000
RightUpLeg 13.955359 -7.552115 1.591229
RightLeg -3.332450 -0.000000 0.000000
RightFoot -16.588720 -23.279043 18.404732
RightToeBase 11.608360 -0.000000 -0.000000
846
root 4.303102 32.402254 1.260249 -2.888437 20.090945 2.892139
Spine -3.844478 16.099565 -4.239053
Head 9.308409 -21.205419 -6.007882
LeftShoulder -9.749248 -7.620345 22.622172
LeftArm -5.578939 32.846538 -103.053432
LeftForeArm 6.581565 0.000000 9.393700
LeftHand 10.080673 -0.000000 -7.241812
LeftHandThumb1 -26.253704 0.000000 33.147579
RightShoulder -12.396647 17.228836 -62.392024
RightArm 53.169842 21.591694 28.809247
RightForeArm 22.798326 -0.000000 84.563108
RightHand 24.003708 -0.000000 1.475753
RightHandThumb1 -24.326973 -0.000000 -32.862282
LeftUpLeg 7.998590 -12.299532 -2.980661
LeftLeg 2.392614 -0.000000 -0.000000
LeftFoot -11.772720 4.723722 -20.938934
LeftToeBase 19.180579 -0.000000 -0.000000
RightUpLeg 13.929151 -7.471451 1.601711
RightLeg -3.354820 -0.000000 0.000000
RightFoot -16.531061 -23.234287 18.360013
RightToeBase 11.626298 -0.000000 -0.000000
847
root 4.298836 32.402336 1.255442 -2.873485 19.963036 2.877949
Spine -3.849700 16.102269 -4.192799
Head 9.243784 -21.090054 -6.016492
LeftShoulder -9.765666 -7.628278 22.607533
LeftArm -5.571445 32.858433 -103.053371
LeftForeArm 6.627645 -0.000000 9.383578
LeftHand 10.091518 -0.000000 -7.273496
LeftHandThumb1 -26.253704 0.000000 33.147579
RightShoulder -12.415514 17.139191 -62.408167
RightArm 53.622385 21.537247 28.992566
RightForeArm 22.874760 -0.000000 84.476607
RightHand 24.089611 -0.000000 1.507782
RightHandThumb1 -24.326973 -0.000000 -32.862282
LeftUpLeg 7.989966 -12.274987 -2.970813
LeftLeg 2.390408 -0.000000 -0.000000
LeftFoot -11.789231 4.781489 -21.077160
LeftToeBase 19.024927 -0.000000 -0.000000
RightUpLeg 13.887962 -7.413680 1.616452
RightLeg -3.365768 -0.000000 0.000000
RightFoot -16.485998 -23.185355 18.315611
RightToeBase 11.652140 -0.000000 -0.000000
848
root 4.294174 32.402365 1.251623 -2.861076 19.838213 2.862301
Spine -3.853465 16.093210 -4.150552
Head 9.182306 -20.967003 -6.006454
LeftShoulder -9.781200 -7.647688 22.601520
LeftArm -5.589985 32.863873 -103.066786
LeftForeArm 6.664915 -0.000000 9.377579
LeftHand 10.069686 0.000000 -7.264510
LeftHandThumb1 -26.253704 0.000000 33.147579
RightShoulder -12.435204 17.055525 -62.420266
RightArm 54.049315 21.513024 29.191272
RightForeArm 23.007819 -0.000000 84.416835
RightHand 24.054635 0.000000 1.430529
RightHandThumb1 -24.326973 -0.000000 -32.862282
LeftUpLeg 7.989383 -12.239359 -2.955557
LeftLeg 2.369433 -0.000000 -0.000000
LeftFoot -11.828280 4.845888 -21.135183
LeftToeBase 19.021073 -0.000000 -0.000000
RightUpLeg 13.854317 -7.397426 1.624504
RightLeg -3.386685 -0.000000 0.000000
RightFoot -16.399104 -23.101550 18.239812
RightToeBase 11.603428 -0.000000 -0.000000
849
root 4.289433 32.402378 1.247394 -2.843727 19.720998 2.850959
Spine -3.857501 16.093765 -4.117565
Head 9.125962 -20.888788 -5.989170
LeftShoulder -9.776818 -7.666151 22.589962
LeftArm -5.598440 32.856578 -103.076702
LeftForeArm 6.685587 -0.000000 9.365159
LeftHand 9.991154 -0.000000 -7.179435
LeftHandThumb1 -26.253704 0.000000 33.147579
RightShoulder -12.465698 16.951917 -62.441980
RightArm 54.431490 21.515259 29.384693
RightForeArm 23.033738 -0.000000 84.421167
RightHand 23.934236 -0.000000 1.126547
RightHandThumb1 -24.326973 -0.000000 -32.862282
LeftUpLeg 7.973864 -12.170270 -2.934118
LeftLeg 2.342084 -0.000000 -0.000000
LeftFoot -11.871632 4.918788 -21.113980
LeftToeBase 19.235637 -0.000000 -0.000000
RightUpLeg 13.813829 -7.347791 1.634495
RightLeg -3.407724 -0.000000 0.000000
RightFoot -16.316595 -23.113018 18.139634
RightToeBase 10.997488 -0.000000 -0.000000
850
root 4.284017 32.402420 1.242195 -2.826700 19.589455 2.834807
Spine -3.859503 16.114761 -4.084404
Head 9.073336 -20.822783 -5.959576
LeftShoulder -9.765816 -7.692727 22.574265
LeftArm -5.602292 32.861033 -103.085049
LeftForeArm 6.672157 0.000000 9.327081
LeftHand 10.022683 -0.000000 -7.119560
LeftHandThumb1 -26.253704 0.000000 33.147579
RightShoulder -12.511165 16.840708 -62.459954
RightArm 54.819311 21.549130 29.631141
RightForeArm 23.084029 0.000000 84.417296
RightHand 23.938732 -0.000000 1.072910
RightHandThumb1 -24.326973 -0.000000 -32.862282
LeftUpLeg 7.955982 -12.119067 -2.918722
LeftLeg 2.364176 -0.000000 -0.000000
LeftFoot -11.888310 4.964110 -21.099503
LeftToeBase 18.909420 -0.000000 -0.000000
RightUpLeg 13.756085 -7.235517 1.668247
RightLeg -3.376907 -0.000000 0.000000
RightFoot -16.344324 -23.040456 18.162935
RightToeBase 11.568811 -0.000000 -0.000000
851
root 4.279848 32.402415 1.238395 -2.815474 19.476808 2.824797
Spine -3.853473 16.106067 -4.049879
Head 9.029734 -20.780180 -5.955849
LeftShoulder -9.769778 -7.665469 22.551570
LeftArm -5.559566 32.801492 -103.061054
LeftForeArm 6.763381 -0.000000 9.304748
LeftHand 10.039581 -0.000000 -7.062630
LeftHandThumb1 -26.253704 0.000000 33.147579
RightShoulder -12.543973 16.763597 -62.470196
RightArm 55.192528 21.606421 29.863491
RightForeArm 23.186903 -0.000000 84.394084
RightHand 23.933733 -0.000000 1.063033
RightHandThumb1 -24.326973 -0.000000 -32.862282
LeftUpLeg 7.956128 -12.099468 -2.910744
LeftLeg 2.344862 -0.000000 -0.000000
LeftFoot -11.908693 5.040269 -21.125339
LeftToeBase 18.902874 -0.000000 -0.000000
RightUpLeg 13.719946 -7.175377 1.681715
RightLeg -3.395592 -0.000000 0.000000
RightFoot -16.294022 -23.074937 18.113429
RightToeBase 11.055062 -0.000000 -0.000000
852
root 4.275854 32.402502 1.234531 -2.802308 19.379230 2.806635
Spine -3.850824 16.083949 -4.013157
Head 8.993449 -20.724328 -5.945192
LeftShoulder -9.774596 -7.677684 22.532254
LeftArm -5.563703 32.786367 -103.065627
LeftForeArm 6.794908 -0.000000 9.272826
LeftHand 10.032460 0.000000 -6.974573
LeftHandThumb1 -26.253704 0.000000 33.147579
RightShoulder -12.588022 16.714151 -62.459529
RightArm 55.573516 21.665120 30.080590
RightForeArm 23.238066 -0.000000 84.352054
RightHand 23.938090 -0.000000 1.138046
RightHandThumb1 -24.326973 -0.000000 -32.862282
LeftUpLeg 7.937346 -12.033887 -2.888398
LeftLeg 2.349400 -0.000000 -0.000000
LeftFoot -11.940287 5.072356 -21.118354
LeftToeBase 18.881494 -0.000000 -0.000000
RightUpLeg 13.678688 -7.092117 1.714896
RightLeg -3.387751 -0.000000 0.000000
RightFoot -16.242727 -23.047233 18.047751
RightToeBase 11.503073 -0.000000 -0.000000
853
root 4.274018 32.402276 1.231475 -2.795730 19.298625 2.795509
Spine -3.837489 16.049270 -3.973189
Head 8.967330 -20.678513 -5.961975
LeftShoulder -9.778012 -7.708933 22.515458
LeftArm -5.595708 32.788362 -103.092050
LeftForeArm 6.803457 0.000000 9.239724
LeftHand 10.050999 -0.000000 -6.895948
LeftHandThumb1 -26.253704 0.000000 33.147579
RightShoulder -12.639100 16.618003 -62.456141
RightArm 55.969139 21.782867 30.302469
RightForeArm 23.300721 0.000000 84.317967
RightHand 23.852838 -0.000000 1.193657
RightHandThumb1 -24.326973 -0.000000 -32.862282
LeftUpLeg 7.935330 -12.050427 -2.887550
LeftLeg 2.345956 -0.000000 -0.000000
LeftFoot -11.980684 5.174302 -21.098277
LeftToeBase 18.840623 -0.000000 -0.000000
RightUpLeg 13.657851 -7.057603 1.719762
RightLeg -3.404753 -0.000000 0.000000
RightFoot -16.212229 -23.038760 18.022733
RightToeBase 11.023114 -0.000000 -0.000000
854
root 4.271724 32.402005 1.228689 -2.791805 19.224846 2.783184
Spine -3.826488 15.997663 -3.929814
Head 8.960106 -20.638584 -5.988733
LeftShoulder -9.777927 -7.727562 22.502154
LeftArm -5.621869 32.816848 -103.120990
LeftForeArm 6.801839 -0.000000 9.200766
LeftHand 10.035140 0.000000 -6.855222
LeftHandThumb1 -26.253704 0.000000 33.147579
RightShoulder -12.681302 16.526000 -62.458109
RightArm 56.341898 21.905275 30.529101
RightForeArm 23.274236 -0.000000 84.247487
RightHand 24.241992 -0.000000 1.087029
RightHandThumb1 -24.326973 -0.000000 -32.862282
LeftUpLeg 7.926900 -12.016257 -2.876328
LeftLeg 2.353448 -0.000000 -0.000000
LeftFoot -12.012848 5.202943 -21.116230
LeftToeBase 18.876534 -0.000000 -0.000000
RightUpLeg 13.635146 -7.055083 1.728631
RightLeg -3.414375 -0.000000 0.000000
RightFoot -16.149991 -23.018517 17.950339
RightToeBase 10.938226 -0.000000 -0.000000
855
root 4.268896 32.401395 1.226031 -2.785798 19.159823 2.773567
Spine -3.820667 15.942480 -3.898423
Head 8.964702 -20.566163 -5.999093
LeftShoulder -9.754903 -7.725455 22.496436
LeftArm -5.621206 32.920163 -103.137137
LeftForeArm 6.712615 0.000000 9.153277
LeftHand 10.079716 -0.000000 -6.891238
LeftHandThumb1 -26.253704 0.000000 33.147579
RightShoulder -12.697537 16.422284 -62.444872
RightArm 56.688805 22.076412 30.741743
RightForeArm 23.186473 -0.000000 84.226217
RightHand 24.255171 -0.000000 0.847333
RightHandThumb1 -24.326973 -0.000000 -32.862282
LeftUpLeg 7.915286 -11.965819 -2.861497
LeftLeg 2.352192 -0.000000 -0.000000
LeftFoot -12.043269 5.224174 -21.171791
LeftToeBase 18.894193 -0.000000 -0.000000
RightUpLeg 13.610325 -7.025574 1.735864
RightLeg -3.403803 -0.000000 0.000000
RightFoot -16.170382 -22.952954 17.981950
RightToeBase 11.019372 -0.000000 -0.000000
